<svg xmlns="http://www.w3.org/2000/svg" width="879.09" height="113.03" viewBox="0 0 879.09 113.03" fill="none">
  <path d="M0.00 111.06V11.06H19.24V111.06ZM12.42 111.06V95.30H74.70V111.06ZM12.42 67.58V53.03H67.27V67.58ZM12.42 26.82V11.06H74.39V26.82ZM89.09 111.06V3.48H107.88V111.06ZM145.45 113.03Q138.94 113.03 133.79 110.53Q128.64 108.03 125.68 103.03Q122.73 98.03 122.73 90.61Q122.73 84.39 125.08 80.00Q127.42 75.61 132.12 72.80Q136.82 70.00 143.79 68.11Q150.76 66.21 160.15 64.85Q165.30 64.09 168.56 63.33Q171.82 62.58 173.33 60.98Q174.85 59.39 174.85 56.21Q174.85 51.52 171.59 48.11Q168.33 44.70 161.06 44.70Q156.67 44.70 152.65 46.21Q148.64 47.73 145.76 50.98Q142.88 54.24 141.82 59.55L124.70 54.24Q126.36 48.18 129.55 43.71Q132.73 39.24 137.42 36.06Q142.12 32.88 148.18 31.36Q154.24 29.85 161.52 29.85Q172.58 29.85 179.70 33.41Q186.82 36.97 190.30 44.47Q193.79 51.97 193.79 63.79V78.64Q193.79 83.79 194.02 89.32Q194.24 94.85 194.62 100.38Q195.00 105.91 195.61 111.06H178.48Q177.88 106.82 177.42 101.97Q176.97 97.12 176.67 92.12H174.24Q172.12 97.88 168.18 102.65Q164.24 107.42 158.56 110.23Q152.88 113.03 145.45 113.03ZM153.03 98.94Q156.06 98.94 159.17 97.88Q162.27 96.82 165.30 94.70Q168.33 92.58 170.91 89.47Q173.48 86.36 175.30 82.12L175.00 68.64L178.64 69.24Q176.06 71.36 172.27 72.58Q168.48 73.79 164.32 74.39Q160.15 75.00 155.98 75.83Q151.82 76.67 148.48 77.95Q145.15 79.24 143.18 81.59Q141.21 83.94 141.21 88.03Q141.21 93.18 144.55 96.06Q147.88 98.94 153.03 98.94ZM212.12 111.06V71.36V31.82H228.18L227.88 59.09H230.61Q231.97 49.39 234.85 42.95Q237.73 36.52 242.88 33.26Q248.03 30.00 255.61 30.00Q257.12 30.00 258.86 30.15Q260.61 30.30 262.73 30.91L261.97 51.06Q259.55 50.15 257.05 49.77Q254.55 49.39 252.42 49.39Q246.52 49.39 242.20 52.42Q237.88 55.45 235.23 60.98Q232.58 66.52 231.21 74.09V111.06ZM273.79 111.06V31.82H292.88V111.06ZM283.33 19.39Q277.58 19.39 274.47 16.89Q271.36 14.39 271.36 9.70Q271.36 5.00 274.47 2.50Q277.58 0.00 283.33 0.00Q289.39 0.00 292.42 2.42Q295.45 4.85 295.45 9.70Q295.45 14.39 292.35 16.89Q289.24 19.39 283.33 19.39ZM342.88 113.03Q334.85 113.03 328.41 111.44Q321.97 109.85 317.42 106.89Q312.88 103.94 310.15 99.77Q307.42 95.61 306.82 90.45L321.82 84.85Q322.12 88.79 324.85 91.89Q327.58 95.00 332.42 96.82Q337.27 98.64 344.09 98.64Q351.67 98.64 355.83 96.29Q360.00 93.94 360.00 89.55Q360.00 86.36 357.73 84.47Q355.45 82.58 351.14 81.29Q346.82 80.00 340.76 78.79Q335.15 77.58 329.47 75.98Q323.79 74.39 319.02 71.74Q314.24 69.09 311.29 64.77Q308.33 60.45 308.33 53.79Q308.33 46.52 312.20 41.21Q316.06 35.91 323.41 32.88Q330.76 29.85 341.21 29.85Q351.06 29.85 358.26 32.58Q365.45 35.30 370.00 40.38Q374.55 45.45 375.76 52.42L360.00 57.42Q359.55 53.18 357.12 50.23Q354.70 47.27 350.61 45.76Q346.52 44.24 341.06 44.24Q334.09 44.24 330.15 46.67Q326.21 49.09 326.21 53.18Q326.21 56.52 328.71 58.48Q331.21 60.45 335.68 61.67Q340.15 62.88 345.91 64.09Q351.97 65.30 357.65 66.89Q363.33 68.48 367.88 71.06Q372.42 73.64 375.15 77.80Q377.88 81.97 377.88 88.48Q377.88 96.36 373.64 101.89Q369.39 107.42 361.59 110.23Q353.79 113.03 342.88 113.03ZM392.58 111.06V11.06H411.67V111.06ZM396.97 111.06V94.70H455.45V111.06ZM484.55 113.03Q478.03 113.03 472.88 110.53Q467.73 108.03 464.77 103.03Q461.82 98.03 461.82 90.61Q461.82 84.39 464.17 80.00Q466.52 75.61 471.21 72.80Q475.91 70.00 482.88 68.11Q489.85 66.21 499.24 64.85Q504.39 64.09 507.65 63.33Q510.91 62.58 512.42 60.98Q513.94 59.39 513.94 56.21Q513.94 51.52 510.68 48.11Q507.42 44.70 500.15 44.70Q495.76 44.70 491.74 46.21Q487.73 47.73 484.85 50.98Q481.97 54.24 480.91 59.55L463.79 54.24Q465.45 48.18 468.64 43.71Q471.82 39.24 476.52 36.06Q481.21 32.88 487.27 31.36Q493.33 29.85 500.61 29.85Q511.67 29.85 518.79 33.41Q525.91 36.97 529.39 44.47Q532.88 51.97 532.88 63.79V78.64Q532.88 83.79 533.11 89.32Q533.33 94.85 533.71 100.38Q534.09 105.91 534.70 111.06H517.58Q516.97 106.82 516.52 101.97Q516.06 97.12 515.76 92.12H513.33Q511.21 97.88 507.27 102.65Q503.33 107.42 497.65 110.23Q491.97 113.03 484.55 113.03ZM492.12 98.94Q495.15 98.94 498.26 97.88Q501.36 96.82 504.39 94.70Q507.42 92.58 510.00 89.47Q512.58 86.36 514.39 82.12L514.09 68.64L517.73 69.24Q515.15 71.36 511.36 72.58Q507.58 73.79 503.41 74.39Q499.24 75.00 495.08 75.83Q490.91 76.67 487.58 77.95Q484.24 79.24 482.27 81.59Q480.30 83.94 480.30 88.03Q480.30 93.18 483.64 96.06Q486.97 98.94 492.12 98.94ZM596.67 113.03Q589.09 113.03 583.64 110.08Q578.18 107.12 574.77 101.67Q571.36 96.21 569.85 88.64H567.12L567.27 111.06H551.21V72.12V3.48H570.30V29.09Q570.30 32.73 569.85 36.97Q569.39 41.21 568.64 45.68Q567.88 50.15 566.97 54.70H570.15Q572.12 47.42 575.38 41.89Q578.64 36.36 583.94 33.18Q589.24 30.00 596.97 30.00Q606.82 30.00 614.02 35.23Q621.21 40.45 625.15 49.77Q629.09 59.09 629.09 71.82Q629.09 84.24 625.23 93.48Q621.36 102.73 614.17 107.88Q606.97 113.03 596.67 113.03ZM590.61 97.27Q596.21 97.27 600.45 94.09Q604.70 90.91 606.89 85.15Q609.09 79.39 609.09 71.52Q609.09 63.94 606.97 58.18Q604.85 52.42 600.76 49.09Q596.67 45.76 590.76 45.76Q586.82 45.76 583.48 47.35Q580.15 48.94 577.73 51.59Q575.30 54.24 573.64 57.42Q571.97 60.61 571.14 64.02Q570.30 67.42 570.30 70.30V72.88Q570.30 76.67 571.52 80.98Q572.73 85.30 575.30 88.94Q577.88 92.58 581.67 94.92Q585.45 97.27 590.61 97.27ZM674.85 113.03Q666.82 113.03 660.38 111.44Q653.94 109.85 649.39 106.89Q644.85 103.94 642.12 99.77Q639.39 95.61 638.79 90.45L653.79 84.85Q654.09 88.79 656.82 91.89Q659.55 95.00 664.39 96.82Q669.24 98.64 676.06 98.64Q683.64 98.64 687.80 96.29Q691.97 93.94 691.97 89.55Q691.97 86.36 689.70 84.47Q687.42 82.58 683.11 81.29Q678.79 80.00 672.73 78.79Q667.12 77.58 661.44 75.98Q655.76 74.39 650.98 71.74Q646.21 69.09 643.26 64.77Q640.30 60.45 640.30 53.79Q640.30 46.52 644.17 41.21Q648.03 35.91 655.38 32.88Q662.73 29.85 673.18 29.85Q683.03 29.85 690.23 32.58Q697.42 35.30 701.97 40.38Q706.52 45.45 707.73 52.42L691.97 57.42Q691.52 53.18 689.09 50.23Q686.67 47.27 682.58 45.76Q678.48 44.24 673.03 44.24Q666.06 44.24 662.12 46.67Q658.18 49.09 658.18 53.18Q658.18 56.52 660.68 58.48Q663.18 60.45 667.65 61.67Q672.12 62.88 677.88 64.09Q683.94 65.30 689.62 66.89Q695.30 68.48 699.85 71.06Q704.39 73.64 707.12 77.80Q709.85 81.97 709.85 88.48Q709.85 96.36 705.61 101.89Q701.36 107.42 693.56 110.23Q685.76 113.03 674.85 113.03ZM749.85 111.06 784.39 11.06H812.42L846.97 111.06H826.06L799.55 26.36H797.42L770.61 111.06ZM768.18 90.45V76.97H831.21V90.45ZM859.70 111.06V11.06H879.09V111.06Z" fill="#07070A"/>
</svg>
