<svg xmlns="http://www.w3.org/2000/svg" width="800" height="500" viewBox="0 0 800 500" fill="none">
  <defs>
    <linearGradient id="bg" x1="0" y1="0" x2="800" y2="500" gradientUnits="userSpaceOnUse">
      <stop stop-color="#FBF9F6"/>
      <stop offset="1" stop-color="#F2ECFE"/>
    </linearGradient>
    <linearGradient id="hot" x1="0" y1="0" x2="1" y2="1">
      <stop stop-color="#F47A0C"/>
      <stop offset="1" stop-color="#DC0B1C"/>
    </linearGradient>
    <linearGradient id="cold" x1="0" y1="0" x2="1" y2="1">
      <stop stop-color="#2348FF"/>
      <stop offset="1" stop-color="#6C2BD9"/>
    </linearGradient>
  </defs>
  <rect width="800" height="500" fill="url(#bg)"/>
  <rect x="56" y="56" width="688" height="388" rx="20" stroke="#EBE5DC" stroke-width="1.5"/>
  <rect x="88" y="96" width="140" height="28" rx="14" fill="#F2ECFE" stroke="#DDD5C9"/>
  <text x="104" y="115" fill="#6C2BD9" font-family="system-ui, sans-serif" font-size="11" font-weight="600" letter-spacing="1.5">DOOH ◊ LIVE DATA</text>
  <text x="88" y="178" fill="#16130F" font-family="system-ui, sans-serif" font-size="32" font-weight="700">The billboard knew</text>
  <text x="88" y="218" fill="#16130F" font-family="system-ui, sans-serif" font-size="32" font-weight="700">how hot it was.</text>
  <text x="88" y="262" fill="#5C554C" font-family="system-ui, sans-serif" font-size="16">McDonald's Qatar ◊ ElarisLabs ‚ÄĒ live weather-reactive DOOH in Doha.</text>
  <rect x="88" y="300" width="96" height="120" rx="12" fill="#16130F"/>
  <rect x="96" y="312" width="80" height="52" rx="6" fill="url(#hot)"/>
  <text x="136" y="344" text-anchor="middle" fill="#FFFFFF" font-family="ui-monospace, monospace" font-size="22" font-weight="700">42į</text>
  <rect x="96" y="372" width="80" height="36" rx="6" fill="url(#cold)"/>
  <text x="136" y="396" text-anchor="middle" fill="#FFFFFF" font-family="system-ui, sans-serif" font-size="11" font-weight="600">Sprite</text>
  <circle cx="620" cy="340" r="72" fill="#FFFFFF" stroke="#EBE5DC" stroke-width="2"/>
  <text x="620" y="332" text-anchor="middle" fill="#DC0B1C" font-family="system-ui, sans-serif" font-size="14" font-weight="700">Doha</text>
  <text x="620" y="358" text-anchor="middle" fill="#938B80" font-family="system-ui, sans-serif" font-size="12">9 venues</text>
</svg>
